<svg width="81" height="81" viewBox="0 0 81 81" fill="none" xmlns="http://www.w3.org/2000/svg">
<path d="M80 56.5619C80 58.6823 80 60.7531 80 62.8177C80 65.1613 80 67.4987 80 69.8423C80 71.4171 79.4198 72.0247 77.8769 71.9999C71.8963 71.9007 65.9096 71.9007 59.9291 71.6341C54.1645 71.3799 48.4494 70.5863 42.7713 69.5199C33.3591 67.7529 23.873 66.8291 14.2942 66.8353C10.5664 66.8353 6.83242 66.8353 3.10461 66.8353C1.60484 66.8353 1.00617 66.2401 1.00617 64.7335C1.00617 60.5113 1.00617 56.2829 1.00617 52.0607C1.00617 51.8499 1.02469 51.6391 1.03703 51.3725C3.73414 51.2299 5.99305 50.2131 7.69031 48.0989C8.99875 46.4683 9.60977 44.5835 9.57891 42.4879C9.51719 38.9043 6.83242 34.4403 1.04937 34.0559C1.03703 33.8141 1.01234 33.5537 1.01234 33.2995C1 28.5627 1 23.8259 1 19.0891C1 17.4523 1.54312 16.8881 3.16633 16.9067C9.39375 16.9563 15.6212 16.9315 21.8424 17.1113C28.6068 17.3097 35.3156 18.1777 41.9689 19.4177C51.3069 21.1661 60.7191 22.0403 70.2114 22.0713C72.7851 22.0775 75.3649 22.0713 77.9386 22.0713C79.4075 22.0713 79.9938 22.6603 79.9938 24.1235C80 28.9409 79.9938 33.7583 79.9938 38.5757C79.9938 38.7865 79.963 38.9973 79.9445 39.2577C77.2041 39.4003 74.9329 40.4419 73.2356 42.6057C71.9272 44.2797 71.3409 46.2017 71.4273 48.3221C71.563 51.6763 73.9948 56.1031 79.9877 56.5619H80ZM54.4855 32.3695C54.0596 31.8053 53.7819 31.2473 53.3375 30.9001C52.7882 30.4785 52.1155 30.5777 51.5353 30.9869C51.3625 31.1109 51.2082 31.2659 51.0539 31.4147C43.1971 39.2887 35.3403 47.1627 27.4897 55.0429C27.3601 55.1731 27.1502 55.3033 27.1255 55.4645C27.0268 56.0411 26.7737 56.7293 26.9836 57.1881C27.1934 57.6469 27.8785 58.1243 28.3784 58.1615C28.8907 58.1987 29.5573 57.8143 29.9584 57.4237C32.8592 54.5841 35.7045 51.6949 38.5744 48.8243C43.5242 43.8581 48.4864 38.8981 53.4239 33.9195C53.8189 33.5227 54.072 32.9895 54.4916 32.3695H54.4855ZM49.0912 59.9285C52.9363 59.9099 55.9791 56.8409 55.9605 52.9969C55.9482 49.2273 52.8314 46.1521 49.0542 46.1707C45.2647 46.1893 42.2281 49.2707 42.2405 53.0775C42.2528 56.8967 45.3017 59.9471 49.0912 59.9347V59.9285ZM38.7657 35.8291C38.7657 32.0223 35.6859 28.9161 31.9334 28.9347C28.113 28.9471 25.0395 32.0471 25.0456 35.8725C25.0518 39.6359 28.1933 42.7607 31.9334 42.7297C35.7353 42.6987 38.7657 39.6359 38.7657 35.8291Z" fill="#000326"/>
<path d="M76.5741 18.8721C75.3829 18.8721 74.2905 18.8721 73.198 18.8721C65.1931 18.9217 57.2191 18.4071 49.282 17.3965C42.8201 16.5719 36.3766 15.6109 29.9023 14.9165C24.2242 14.3089 18.5152 13.9803 12.8186 13.5339C12.6026 13.5153 12.3927 13.5091 12.1582 13.3541C13.1457 13.2177 14.1332 13.0565 15.1269 12.9387C22.0085 12.1451 28.9148 11.7111 35.8397 11.7297C42.5732 11.7421 49.3129 11.7421 56.0464 11.7297C62.1257 11.7235 68.1495 11.1841 74.1238 10.0619C75.673 9.77055 76.5679 10.5083 76.5741 12.0831C76.5802 14.2903 76.5741 16.4913 76.5741 18.8783V18.8721Z" fill="#000326"/>
<path d="M49.0918 56.4998C47.2094 56.4998 45.6664 54.9622 45.6602 53.0774C45.6479 51.1926 47.1723 49.6364 49.0548 49.6054C50.9434 49.5744 52.5542 51.1864 52.5357 53.0774C52.5172 54.956 50.968 56.4998 49.0918 56.4998Z" fill="#000326"/>
<path d="M31.9084 39.2577C30.0075 39.2577 28.4707 37.7263 28.4707 35.8291C28.4707 33.9381 30.0075 32.4067 31.9146 32.4067C33.8217 32.4067 35.3462 33.9319 35.3462 35.8353C35.3462 37.7325 33.8155 39.2639 31.9146 39.2639L31.9084 39.2577Z" fill="#000326"/>
</svg>
