<svg width="81" height="81" viewBox="0 0 81 81" fill="none" xmlns="http://www.w3.org/2000/svg">
<path d="M77.2027 47.1078C76.3738 45.3667 75.532 43.6321 74.6516 41.9167C74.1504 40.9401 74.1569 40.0342 74.6645 39.0577C75.5127 37.413 76.3095 35.7361 77.1192 34.0721C78.9955 30.2173 77.8067 26.5424 74.0284 24.5314C72.3705 23.6448 70.719 22.739 69.0419 21.8973C68.0459 21.4026 67.5511 20.6445 67.3776 19.5716C67.0756 17.6442 66.7479 15.7168 66.3623 13.8022C65.5398 9.76749 62.3719 7.58952 58.2915 8.19987C56.383 8.48255 54.4681 8.75239 52.5532 9.03508C51.6471 9.16999 50.876 8.93228 50.2142 8.28339C48.7812 6.87638 47.3354 5.48222 45.8832 4.10091C42.9401 1.29974 39.0461 1.30617 36.1095 4.10091C34.6893 5.4501 33.2692 6.79928 31.8877 8.18059C31.123 8.94513 30.2684 9.16999 29.2145 9.00295C27.306 8.69457 25.3976 8.40546 23.4762 8.18059C19.2994 7.70516 16.3114 9.95381 15.5596 14.0977C15.2255 15.9481 14.9042 17.7919 14.6086 19.6487C14.4479 20.6638 13.9596 21.3898 13.0214 21.8652C11.2993 22.739 9.60285 23.6577 7.9 24.57C4.23727 26.5231 3.02279 30.2109 4.82203 33.9436C5.65739 35.6783 6.49917 37.413 7.37309 39.1348C7.84217 40.0599 7.8486 40.9273 7.37309 41.8589C6.48632 43.5999 5.63168 45.3539 4.7899 47.1207C3.04207 50.7892 4.23727 54.4577 7.81647 56.3979C9.49361 57.3038 11.1708 58.2097 12.8736 59.0578C13.9146 59.5782 14.4544 60.3491 14.6279 61.4927C14.917 63.4009 15.2512 65.2962 15.6303 67.185C16.4528 71.2518 19.6464 73.4298 23.7526 72.7938C25.661 72.4982 27.5759 72.2412 29.4908 71.965C30.3712 71.8365 31.1166 72.0806 31.7592 72.7038C32.9222 73.8474 34.1367 74.9396 35.2741 76.1089C36.6685 77.5416 38.2107 78.6788 40.2413 79.0065H41.7513C43.7819 78.6788 45.3305 77.548 46.7185 76.1089C47.8173 74.9782 49.0061 73.9245 50.1178 72.8066C50.8568 72.0614 51.6921 71.8301 52.7203 71.9971C54.6287 72.3055 56.5436 72.5818 58.4585 72.8195C62.6482 73.327 65.6876 71.0591 66.433 66.8895C66.7607 65.0392 67.0884 63.1889 67.384 61.3385C67.5511 60.3234 68.0523 59.6039 68.9841 59.1349C70.7319 58.2547 72.454 57.3295 74.1761 56.3979C77.7553 54.4577 78.9441 50.7956 77.1899 47.1207L77.2027 47.1078ZM32.1704 20.5096C36.6428 20.5546 40.267 24.2359 40.2477 28.7075C40.2284 33.1662 36.54 36.8026 32.0612 36.7833C27.5245 36.7576 23.9196 33.102 23.9518 28.5597C23.9839 24.1138 27.7109 20.4582 32.1704 20.5096ZM28.2506 56.3594C27.7237 56.8862 27.1904 57.3488 26.3872 57.3552C25.4747 57.3617 24.7807 56.9762 24.3566 56.1731C23.9196 55.3443 24.0096 54.5284 24.5815 53.7831C24.7357 53.5839 24.9156 53.4105 25.0956 53.2306C34.6444 43.6963 44.1996 34.1685 53.7484 24.6342C54.2946 24.0881 54.8601 23.6256 55.689 23.632C56.9099 23.6448 57.8866 24.6021 58.0151 25.8742C57.8159 26.3175 57.6425 26.7801 57.4111 27.2041C57.2955 27.4161 57.0834 27.5832 56.9035 27.7566C47.3547 37.2909 37.7994 46.8187 28.2506 56.353V56.3594ZM49.88 60.4905C45.4141 60.4776 41.7449 56.7963 41.7513 52.344C41.7513 47.8595 45.3884 44.236 49.8865 44.2231C54.391 44.2103 58.028 47.821 58.0473 52.3118C58.0666 56.8091 54.3717 60.5033 49.88 60.4905ZM49.9314 48.6433C47.9009 48.6176 46.1787 50.333 46.2045 52.3697C46.2302 54.4127 47.8623 56.0253 49.9122 56.0189C51.9556 56.0189 53.6006 54.387 53.607 52.3504C53.6199 50.3523 51.9492 48.669 49.9314 48.6433ZM32.0804 32.3567C34.111 32.3696 35.8267 30.6413 35.7946 28.6111C35.7625 26.5681 34.1239 24.9619 32.074 24.9747C30.037 24.9876 28.3856 26.6323 28.392 28.6561C28.392 30.6542 30.0756 32.3439 32.0804 32.3567Z" fill="#000326"/>
</svg>
