<svg width="81" height="81" viewBox="0 0 81 81" fill="none" xmlns="http://www.w3.org/2000/svg">
<path d="M21 6.5C21 4.567 22.567 3 24.5 3C26.433 3 28 4.567 28 6.5V11.5C28 13.433 26.433 15 24.5 15C22.567 15 21 13.433 21 11.5V6.5Z" fill="#000326"/>
<path d="M53 6.5C53 4.567 54.567 3 56.5 3C58.433 3 60 4.567 60 6.5V11.5C60 13.433 58.433 15 56.5 15C54.567 15 53 13.433 53 11.5V6.5Z" fill="#000326"/>
<path fill-rule="evenodd" clip-rule="evenodd" d="M50 8H31V11.5C31 15.0899 28.0899 18 24.5 18C20.9101 18 18 15.0899 18 11.5V8H15C8.37258 8 3 13.3726 3 20V28H78V20C78 13.3726 72.6274 8 66 8H63V11.5C63 15.0899 60.0899 18 56.5 18C52.9101 18 50 15.0899 50 11.5V8ZM56 8H57V11.5C57 11.7761 56.7761 12 56.5 12C56.2239 12 56 11.7761 56 11.5V8ZM25 8H24V11.5C24 11.7761 24.2239 12 24.5 12C24.7761 12 25 11.7761 25 11.5V8Z" fill="#000326"/>
<path fill-rule="evenodd" clip-rule="evenodd" d="M3 31V66C3 72.6274 8.37259 78 15 78H66C72.6274 78 78 72.6274 78 66V31H71V66C71 68.7614 68.7614 71 66 71H15C12.2386 71 10 68.7614 10 66V31H3ZM6 24H10H71H75V25H6V24Z" fill="#000326"/>
<path fill-rule="evenodd" clip-rule="evenodd" d="M28.5 34C30.433 34 32 35.567 32 37.5V46H49V37.5C49 35.567 50.567 34 52.5 34C54.433 34 56 35.567 56 37.5V39.3368C56.4546 39.1208 56.9632 39 57.5 39C59.433 39 61 40.567 61 42.5V46H62.5C64.433 46 66 47.567 66 49.5C66 51.433 64.433 53 62.5 53H61V56.5C61 58.433 59.433 60 57.5 60C56.9632 60 56.4546 59.8792 56 59.6632V61.5C56 63.433 54.433 65 52.5 65C50.567 65 49 63.433 49 61.5V53H32V61.5C32 63.433 30.433 65 28.5 65C26.567 65 25 63.433 25 61.5V59.6632C24.5454 59.8792 24.0368 60 23.5 60C21.567 60 20 58.433 20 56.5V53H18.5C16.567 53 15 51.433 15 49.5C15 47.567 16.567 46 18.5 46H20V42.5C20 40.567 21.567 39 23.5 39C24.0368 39 24.5454 39.1208 25 39.3368V37.5C25 35.567 26.567 34 28.5 34Z" fill="#000326"/>
</svg>
