<svg width="81" height="81" viewBox="0 0 81 81" fill="none" xmlns="http://www.w3.org/2000/svg">
<path fill-rule="evenodd" clip-rule="evenodd" d="M18 9C18 6.23858 20.2386 4 23 4H58C60.7614 4 63 6.23858 63 9V34.5C63 46.9264 52.9264 57 40.5 57C28.0736 57 18 46.9264 18 34.5V9ZM23 73.5C23 71.567 24.567 70 26.5 70H54.5C56.433 70 58 71.567 58 73.5C58 75.433 56.433 77 54.5 77H26.5C24.567 77 23 75.433 23 73.5ZM33.5 60C31.567 60 30 61.567 30 63.5C30 65.433 31.567 67 33.5 67H47.5C49.433 67 51 65.433 51 63.5C51 61.567 49.433 60 47.5 60H33.5ZM15 9H6C3.23858 9 1 11.2386 1 14V16C1 26.2112 6.88651 35.0476 15.4512 39.3008C15.155 37.7459 15 36.1411 15 34.5V30.7317C10.728 27.2477 8 21.9424 8 16H15V9ZM66 30.7317C70.272 27.2477 73 21.9424 73 16H66V9H75C77.7614 9 80 11.2386 80 14V16C80 26.2112 74.1135 35.0476 65.5488 39.3007C65.845 37.7459 66 36.1411 66 34.5V30.7317ZM42.2935 16.8293C41.5598 15.3428 39.4402 15.3428 38.7065 16.8293L36.7039 20.8871C36.4126 21.4773 35.8494 21.8865 35.198 21.9811L30.72 22.6318C29.0796 22.8702 28.4245 24.8861 29.6116 26.0432L32.8519 29.2018C33.3233 29.6612 33.5384 30.3232 33.4271 30.972L32.6622 35.4319C32.3819 37.0658 34.0968 38.3117 35.5641 37.5403L39.5693 35.4346C40.152 35.1283 40.848 35.1283 41.4307 35.4346L45.4359 37.5403C46.9032 38.3117 48.6181 37.0658 48.3378 35.4319L47.5729 30.972C47.4616 30.3232 47.6767 29.6612 48.1481 29.2018L51.3884 26.0432C52.5755 24.8861 51.9204 22.8702 50.28 22.6318L45.802 21.9811C45.1506 21.8865 44.5874 21.4773 44.2961 20.8871L42.2935 16.8293Z" fill="#000326"/>
</svg>
