<svg width="372" height="75" viewBox="0 0 372 75" fill="none" xmlns="http://www.w3.org/2000/svg">
<g clip-path="url(#clip0_6023_1837)">
<path d="M371.673 34.9669C371.65 32.7674 371.487 30.5372 371.104 28.3745C369.68 20.3299 365.997 13.5843 360.065 8.3213C351.914 1.09162 342.502 -1.402 332.086 0.742392C324.719 2.26185 318.584 6.18303 313.692 12.1996C308.928 18.063 306.151 24.8822 305.866 32.5959C305.599 39.8439 305.738 47.1104 305.767 54.3645C305.785 58.3347 307.94 61.5146 311.38 62.8073C311.856 62.985 312.019 63.2485 312.1 63.7141C313.14 69.6939 318.183 74.1359 323.94 74.1481C328.791 74.1543 333.643 74.1481 338.494 74.1481C340.039 74.1481 341.067 73.1433 341.062 71.6545C341.056 70.2147 340.016 69.2099 338.523 69.2099C333.84 69.2099 329.157 69.2344 324.481 69.1854C323.522 69.1731 322.517 69.0445 321.616 68.7197C319.002 67.7823 317.41 65.8034 316.695 62.9666C320.884 61.1408 322.714 57.912 322.621 53.2985C322.54 49.2609 322.61 45.2172 322.598 41.1796C322.598 40.4382 322.552 39.6907 322.47 38.9494C321.959 34.4523 317.654 30.911 313.384 31.4992C312.466 31.6278 311.565 31.9158 310.543 32.1609C311.809 21.543 316.632 13.3637 325.631 8.46222C335.781 2.92968 345.849 3.72616 355.214 10.6556C362.227 15.8451 365.951 23.2095 366.88 32.3202C365.079 31.4685 363.365 31.1989 361.599 31.6094C357.55 32.5591 354.871 36.0637 354.842 40.475C354.819 44.7209 354.831 48.9668 354.842 53.2127C354.842 54.0827 354.877 54.965 354.976 55.8289C355.493 60.5098 360.193 64.1307 364.568 63.2423C368.902 62.3601 371.667 58.9045 371.691 54.2481C371.72 47.8149 371.743 41.3818 371.673 34.9486V34.9669Z" fill="white"/>
<path d="M56.4127 66.1209H6.36168C7.06467 59.651 10.719 55.7788 14.2107 52.8379C16.7844 50.6751 21.4903 47.5382 26.9631 45.2161C28.0088 44.7689 29.1127 44.3094 30.234 43.8376C36.6712 41.1295 43.9682 38.0538 47.5935 35.8727C54.8732 31.4859 57.9756 26.6457 57.9756 19.6978C57.9756 14.0672 55.2508 9.44147 49.6386 5.56318C44.2994 1.87481 37.2173 0 28.5956 0H27.1025C20.0495 0 13.9028 1.86256 8.83664 5.52642C3.63691 9.28217 0.70879 14.1101 0.139434 19.8816L0 21.2663L1.28977 21.542C3.91578 22.1363 5.93176 20.9109 6.66379 18.3009C7.73279 14.7902 10.2775 11.8677 14.2223 9.6314C18.0393 7.51764 22.3734 6.44544 27.0967 6.44544H28.5898C35.0967 6.44544 40.5637 7.65856 44.8455 10.0419C49.7606 12.8235 51.8521 15.7092 51.8521 19.6917C51.8521 24.0846 49.5398 27.2338 43.608 30.9283C40.7961 32.6806 36.5434 34.488 30.6639 36.9878C28.8222 37.772 26.8178 38.6236 24.6508 39.561C16.9761 42.9002 13.2869 45.8043 10.3239 48.1325L9.68487 48.6349C5.28107 52.0843 0.0290488 58.1867 0.0290488 67.7017C0.0290488 70.7467 1.76617 72.5664 4.67686 72.5664H60.863V71.0285C60.863 67.91 59.2421 66.1209 56.4127 66.1209ZM125.189 4.09886C125.189 2.62842 124.393 1.32953 123.115 0.710714C121.813 0.0857758 120.338 0.312469 119.257 1.29889L68.0439 48.2305C66.5798 49.5723 66.086 51.5942 66.7599 53.4996C67.4339 55.4051 69.1303 56.6366 71.0824 56.6366H118.955V71.3532V72.9401H120.605C123.475 72.9401 125.189 71.1143 125.189 68.057V56.6304H133.915C136.663 56.6304 138.301 54.8046 138.301 51.7473V50.1299H125.189V4.09886ZM118.955 21.8973V50.136H74.9401L119.112 10.1215L118.955 21.8973ZM171.876 2.78772L148.608 72.113L150.037 72.6828C150.659 72.9217 151.24 73.0504 151.786 73.0504C152.303 73.0504 152.791 72.9401 153.244 72.7195C154.139 72.2784 154.795 71.4452 155.184 70.2504L178.348 1.27438L177.018 0.667826C174.88 -0.287962 172.956 0.496275 171.876 2.78772ZM250.877 1.05382H190.409V2.68969C190.409 5.78987 192.047 7.64018 194.807 7.64018H247.409L210.551 66.5008C210.151 67.2299 209.953 68.0264 209.953 68.8658C209.953 70.569 210.65 71.9966 211.882 72.9278L213.224 74.3431L254.113 8.79815C254.892 7.61567 255.275 6.56185 255.275 5.58768C255.275 2.74483 253.631 1.04769 250.877 1.04769V1.05382Z" fill="#0081FF"/>
</g>
<defs>
<clipPath id="clip0_6023_1837">
<rect width="371.685" height="74.337" fill="white"/>
</clipPath>
</defs>
</svg>
