<svg width="334" height="81" viewBox="0 0 334 81" fill="none" xmlns="http://www.w3.org/2000/svg">
<path d="M237.463 12.0867V80.7686H238.287C244.234 80.7686 249.269 75.3597 249.269 68.9528V0.155272H248.444C242.382 0.155272 237.463 5.50635 237.463 12.0867ZM0 12.0867V80.7686H0.824724C6.77142 80.7686 11.8066 75.3597 11.8066 68.9528V0.155272H10.9818C4.93388 0.155272 0 5.50635 0 12.0867ZM211.274 0.487907C208.453 1.37011 206.167 3.40931 204.821 6.21501L176.1 67.4054L175.883 66.9281C171.383 57.1515 156.018 23.8447 147.322 5.98361C146.048 3.27915 143.835 1.31226 141.086 0.444519C138.423 -0.379837 135.515 -0.0472019 133.099 1.35565L132.289 1.80398L165.987 74.0581C168.432 78.5992 171.933 81 176.115 81C180.296 81 183.899 78.6137 186.098 74.0725L219.955 2.03538L220.071 1.80398L219.275 1.37011C216.816 -0.0327395 213.98 -0.350912 211.274 0.487907ZM99.2997 12.0867V80.7686H100.124C106.071 80.7686 111.106 75.3597 111.106 68.9528V0.155272H110.282C104.219 0.155272 99.2997 5.50635 99.2997 12.0867ZM29.0534 40.245C29.4007 39.9847 64.1259 14.473 76.0916 5.31834C74.2975 2.72958 71.5918 0.965165 68.6112 0.444519C68.0035 0.343283 67.3959 0.285433 66.7882 0.285433C64.5744 0.285433 62.4475 0.99409 60.6679 2.36802L18.578 34.5468C16.6392 36.0364 15.5251 38.307 15.5395 40.7801C15.554 43.2532 16.6826 45.5093 18.6503 46.97L61.6228 78.9753C63.6484 80.4938 66.2383 81.0434 68.9006 80.5372C71.9246 79.9732 74.746 78.0786 76.5402 75.4609L28.4891 40.6789L29.0679 40.2595L29.0534 40.245Z" fill="white"/>
<path d="M306.059 64.5139V16.4861H312.546V64.5139H306.059ZM285.27 43.7246V37.2754H333.335V43.7246H285.27Z" fill="white"/>
</svg>
