<svg width="81" height="81" viewBox="0 0 81 81" fill="none" xmlns="http://www.w3.org/2000/svg">
<path d="M19.0587 21.7109C18.3147 20.197 17.3846 18.7824 16.8885 17.225C14.4889 9.73608 20.5283 1.25441 28.3782 1.01863C30.8088 0.944178 32.8798 1.94312 34.647 3.59354C36.5505 5.37425 37.8403 7.57688 38.9998 9.87258C39.4834 10.8343 39.9299 11.8146 40.4507 12.9066C40.7111 12.1497 40.922 11.4796 41.1638 10.8219C42.0877 8.31523 43.3216 5.99471 45.2562 4.11472C48.9517 0.522266 53.7075 0.0258986 58.327 2.67526C65.2716 6.66481 66.5861 16.0772 61.9791 21.3262C61.9171 21.4007 61.8675 21.4938 61.7311 21.7109C63.2068 21.7109 64.5709 21.7109 65.9289 21.7109C67.3426 21.7109 68.7315 21.8971 70.0089 22.5361C73.0843 24.0749 74.7647 26.5629 74.9817 30.0127C74.9941 30.2547 75.0003 30.4966 75.0003 30.7386C75.0003 43.1478 75.0065 55.557 75.0003 67.9661C75.0003 72.4521 72.3651 75.846 68.1735 76.7705C67.4418 76.9318 66.6791 76.9814 65.9289 76.9814C48.9703 76.9938 32.0117 76.9938 15.0594 76.9876C10.4275 76.9876 6.9366 74.1583 6.13052 69.7903C6.05611 69.3932 6.02511 68.9837 6.02511 68.5866C6.02511 55.7741 5.98791 42.9617 6.03751 30.143C6.05611 26.0666 8.87118 22.7719 12.8581 21.9219C13.6642 21.7482 14.5137 21.7358 15.3508 21.7171C16.6281 21.6861 17.9116 21.7109 19.0649 21.7109H19.0587ZM40.6057 42.4405C39.657 41.5408 38.9006 40.7342 38.0573 40.0331C34.7648 37.3093 29.8725 37.6319 27.0079 40.7218C24.1122 43.8551 24.137 48.7071 27.1567 51.7784C30.8956 55.588 34.6842 59.3418 38.4665 63.1079C39.6694 64.3054 41.3126 64.3241 42.5093 63.1328C46.3351 59.3356 50.1546 55.5322 53.9308 51.6853C55.5553 50.0287 56.287 47.9501 56.0886 45.6296C55.8033 42.335 54.1416 39.9214 51.0289 38.7425C47.8542 37.5388 44.9337 38.1903 42.4225 40.486C41.79 41.063 41.2444 41.7393 40.6057 42.4343V42.4405ZM45.3244 21.4628C45.4732 21.5 45.5538 21.5434 45.6282 21.5372C49.4043 21.4069 52.8022 20.2156 55.7599 17.8393C57.5643 16.3874 58.1595 14.4826 57.5829 12.2738C56.9938 10.0339 55.5243 8.61925 53.2549 8.03602C52.1884 7.76302 51.2149 7.95536 50.4894 8.71853C49.7082 9.54994 48.8897 10.4558 48.4494 11.4796C47.6558 13.3223 47.1039 15.2768 46.5087 17.194C46.0684 18.5962 45.7212 20.0295 45.3244 21.4565V21.4628ZM35.9677 21.5744C34.9632 17.4174 33.4565 13.6388 31.2304 10.1642C30.9018 9.64922 30.4802 9.17767 30.0461 8.73714C29.2587 7.92434 28.3162 7.71338 27.2373 8.1353C25.6127 8.76816 24.5338 9.96565 23.8208 11.5044C22.7667 13.7877 23.1201 15.8414 24.9617 17.5352C28.031 20.3459 31.8257 21.2642 35.9615 21.5744H35.9677Z" fill="#000326"/>
</svg>
