<svg width="233" height="39" viewBox="0 0 233 39" fill="none" xmlns="http://www.w3.org/2000/svg">
<path d="M145.64 25.3818C145.64 21.0811 148.771 17.6883 152.722 17.6883C156.673 17.6883 159.563 20.9855 159.563 25.3818C159.563 29.7782 156.624 33.171 152.722 33.171C148.82 33.171 145.64 29.7303 145.64 25.3818ZM132.054 37.3762H137.594V13.4831H132.054V37.3762ZM131.186 5.50287C131.186 7.55765 132.873 9.2301 134.848 9.2301C136.823 9.2301 138.461 7.55765 138.461 5.50287C138.461 3.59136 136.823 1.96658 134.848 1.96658C132.873 1.96658 131.186 3.59136 131.186 5.50287ZM109.458 25.334C109.458 21.0333 112.638 17.6883 116.733 17.6883C120.828 17.6883 124.008 21.0333 124.008 25.334C124.008 29.6348 120.78 33.171 116.733 33.171C112.687 33.171 109.458 29.6825 109.458 25.334ZM103.822 25.334C103.822 32.5019 109.507 38.1407 116.733 38.1407C123.96 38.1407 129.645 32.5019 129.645 25.334C129.645 18.1661 124.056 12.7185 116.733 12.7185C109.41 12.7185 103.822 18.214 103.822 25.334ZM88.8385 37.3762H94.3791V24.8562C94.3791 19.8864 97.0287 17.6883 101.461 17.6883C102.281 17.6883 102.906 17.7361 103.485 17.8793V13.053C102.906 12.8619 101.895 12.7185 100.786 12.7185C93.2711 12.7185 88.8385 17.4015 88.8385 24.8562V37.3762ZM66.6291 25.3818C66.6291 21.0811 69.7605 17.6883 73.7109 17.6883C77.6616 17.6883 80.5526 20.9855 80.5526 25.3818C80.5526 29.7782 77.6134 33.171 73.7109 33.171C69.8087 33.171 66.6291 29.7303 66.6291 25.3818ZM60.9923 25.3818C60.9923 32.3108 66.5809 38.1407 73.1816 38.1407C75.9268 38.1407 78.4324 37.0416 79.9258 35.2258H80.1672V37.3762H85.7069V0.0551758H80.1672V15.4423H79.9258C78.4807 13.722 75.9751 12.7185 73.1816 12.7185C66.5327 12.7185 60.9923 18.5006 60.9923 25.3818ZM36.7111 37.3762H42.2514V23.3748C42.2514 20.0298 44.5158 17.6883 47.6472 17.6883C50.7788 17.6883 53.043 20.0298 53.043 23.3748V37.3762H58.5835V23.3748C58.5835 17.5449 53.9103 12.7185 47.6472 12.7185C41.3842 12.7185 36.7111 17.5449 36.7111 23.3748V37.3762ZM11.2735 23.0404L17.2474 6.07624H17.5365L23.5104 23.0404H11.2735ZM0 37.3762H6.26305L9.39462 28.4879H25.3894L28.5209 37.3762H34.7839L20.8607 0.0551758H13.9233L0 37.3762ZM152.192 38.1407C154.937 38.1407 157.443 37.0416 158.937 35.2258H159.177V37.3762H164.717V0.0551758H159.177V15.4423H158.937C157.491 13.722 154.985 12.7185 152.192 12.7185C145.543 12.7185 140.003 18.5006 140.003 25.3818C140.003 32.263 145.592 38.1407 152.192 38.1407Z" fill="#010101"/>
<path d="M228.886 0.0551758L217.037 33.9172H216.388L204.538 0.0551758H200.784L214.502 38.1674H218.921L232.641 0.0551758H228.886Z" fill="#010101"/>
<path d="M198.58 0.0551758H173.876V3.17307H184.675V38.1519H187.781V3.17307H198.58V0.0551758Z" fill="#010101"/>
</svg>
